<svg xmlns="http://www.w3.org/2000/svg" width="512" height="512" viewBox="0 0 512 512">
  <defs>
    <linearGradient id="p" x1="0" y1="0" x2="1" y2="1">
      <stop offset="0" stop-color="#a855f7"/>
      <stop offset="1" stop-color="#4c1d95"/>
    </linearGradient>
  </defs>
  <path d="M256 30c92 0 174 26 206 42v176c0 144-94 224-206 258C144 472 50 392 50 248V72c32-16 114-42 206-42z" fill="url(#p)" stroke="#111827" stroke-width="16"/>
  <path d="M96 124c40-16 104-34 160-34s120 18 160 34" fill="none" stroke="#ffffff" stroke-width="10" opacity="0.85"/>
  <path d="M256 136c-48 0-92 24-120 64 24 38 68 64 120 64s96-26 120-64c-28-40-72-64-120-64z" fill="#ffffff" opacity="0.12"/>
  <circle cx="256" cy="230" r="44" fill="#ffffff" opacity="0.92"/>
  <path d="M256 196l20 12v24l-20 12-20-12v-24z" fill="#111827" opacity="0.9"/>
  <path d="M160 310h192" stroke="#ffffff" stroke-width="10" opacity="0.25"/>
  <path d="M140 340h232" stroke="#ffffff" stroke-width="10" opacity="0.25"/>
  <path d="M120 370h272" stroke="#ffffff" stroke-width="10" opacity="0.25"/>
  <path d="M186 404c20 28 44 46 70 56 26-10 50-28 70-56" fill="none" stroke="#fbbf24" stroke-width="12" stroke-linecap="round"/>
</svg>
